<svg width="90" height="100" viewBox="0 0 90 100" fill="none" xmlns="http://www.w3.org/2000/svg">
<path d="M10 100C7.25 100 4.895 99.0217 2.935 97.065C0.978333 95.105 0 92.75 0 90V20C0 17.25 0.978333 14.895 2.935 12.935C4.895 10.9783 7.25 10 10 10H30.875C31.7917 7.08333 33.5833 4.68667 36.25 2.81C38.9167 0.936667 41.8333 0 45 0C48.3333 0 51.3133 0.936667 53.94 2.81C56.5633 4.68667 58.3333 7.08333 59.25 10H80C82.75 10 85.105 10.9783 87.065 12.935C89.0217 14.895 90 17.25 90 20V90C90 92.75 89.0217 95.105 87.065 97.065C85.105 99.0217 82.75 100 80 100H10ZM10 90H80V20H70V35H20V20H10V90ZM45 20C46.4167 20 47.605 19.52 48.565 18.56C49.5217 17.6033 50 16.4167 50 15C50 13.5833 49.5217 12.395 48.565 11.435C47.605 10.4783 46.4167 10 45 10C43.5833 10 42.3967 10.4783 41.44 11.435C40.48 12.395 40 13.5833 40 15C40 16.4167 40.48 17.6033 41.44 18.56C42.3967 19.52 43.5833 20 45 20Z" fill="#E0E0E0"/>
</svg>
