<svg width="48" height="48" viewBox="0 0 48 48" fill="none" xmlns="http://www.w3.org/2000/svg">
<path d="M21 30C20.45 30 19.9793 29.8043 19.588 29.413C19.196 29.021 19 28.55 19 28V16C19 15.45 19.196 14.979 19.588 14.587C19.9793 14.1957 20.45 14 21 14H30C30.55 14 31.021 14.1957 31.413 14.587C31.8043 14.979 32 15.45 32 16V28C32 28.55 31.8043 29.021 31.413 29.413C31.021 29.8043 30.55 30 30 30H21ZM21 28H30V16H21V28ZM17 34C16.45 34 15.979 33.8043 15.587 33.413C15.1957 33.021 15 32.55 15 32V19C15 18.7167 15.096 18.479 15.288 18.287C15.4793 18.0957 15.7167 18 16 18C16.2833 18 16.521 18.0957 16.713 18.287C16.9043 18.479 17 18.7167 17 19V32H27C27.2833 32 27.521 32.096 27.713 32.288C27.9043 32.4793 28 32.7167 28 33C28 33.2833 27.9043 33.5207 27.713 33.712C27.521 33.904 27.2833 34 27 34H17Z" fill="#333333"/>
</svg>
