<svg width="48" height="48" viewBox="0 0 48 48" fill="none" xmlns="http://www.w3.org/2000/svg">
<path d="M24 27C25.0609 27 26.0783 26.5786 26.8284 25.8284C27.5786 25.0783 28 24.0609 28 23V17C28 15.9391 27.5786 14.9217 26.8284 14.1716C26.0783 13.4214 25.0609 13 24 13C22.9391 13 21.9217 13.4214 21.1716 14.1716C20.4214 14.9217 20 15.9391 20 17V23C20 24.0609 20.4214 25.0783 21.1716 25.8284C21.9217 26.5786 22.9391 27 24 27ZM22 17C22 16.4696 22.2107 15.9609 22.5858 15.5858C22.9609 15.2107 23.4696 15 24 15C24.5304 15 25.0391 15.2107 25.4142 15.5858C25.7893 15.9609 26 16.4696 26 17V23C26 23.5304 25.7893 24.0391 25.4142 24.4142C25.0391 24.7893 24.5304 25 24 25C23.4696 25 22.9609 24.7893 22.5858 24.4142C22.2107 24.0391 22 23.5304 22 23V17ZM32 23C32 22.7348 31.8946 22.4804 31.7071 22.2929C31.5196 22.1054 31.2652 22 31 22C30.7348 22 30.4804 22.1054 30.2929 22.2929C30.1054 22.4804 30 22.7348 30 23C30 24.5913 29.3679 26.1174 28.2426 27.2426C27.1174 28.3679 25.5913 29 24 29C22.4087 29 20.8826 28.3679 19.7574 27.2426C18.6321 26.1174 18 24.5913 18 23C18 22.7348 17.8946 22.4804 17.7071 22.2929C17.5196 22.1054 17.2652 22 17 22C16.7348 22 16.4804 22.1054 16.2929 22.2929C16.1054 22.4804 16 22.7348 16 23C16.0018 24.9473 16.7137 26.8271 18.0024 28.287C19.2911 29.7469 21.068 30.6866 23 30.93V33H21C20.7348 33 20.4804 33.1054 20.2929 33.2929C20.1054 33.4804 20 33.7348 20 34C20 34.2652 20.1054 34.5196 20.2929 34.7071C20.4804 34.8946 20.7348 35 21 35H27C27.2652 35 27.5196 34.8946 27.7071 34.7071C27.8946 34.5196 28 34.2652 28 34C28 33.7348 27.8946 33.4804 27.7071 33.2929C27.5196 33.1054 27.2652 33 27 33H25V30.93C26.932 30.6866 28.7089 29.7469 29.9976 28.287C31.2863 26.8271 31.9982 24.9473 32 23Z" fill="#333333"/>
</svg>
