<svg width="88" height="120" viewBox="0 0 88 120" fill="none" xmlns="http://www.w3.org/2000/svg">
<path opacity="0.1" d="M43.6364 76.3636C49.4229 76.3636 54.9724 74.0649 59.0641 69.9732C63.1558 65.8815 65.4545 60.332 65.4545 54.5455V21.8182C65.4545 16.0316 63.1558 10.4821 59.0641 6.3904C54.9724 2.2987 49.4229 0 43.6364 0C37.8498 0 32.3003 2.2987 28.2086 6.3904C24.1169 10.4821 21.8182 16.0316 21.8182 21.8182V54.5455C21.8182 60.332 24.1169 65.8815 28.2086 69.9732C32.3003 74.0649 37.8498 76.3636 43.6364 76.3636ZM32.7273 21.8182C32.7273 18.9249 33.8766 16.1501 35.9225 14.1043C37.9683 12.0584 40.7431 10.9091 43.6364 10.9091C46.5296 10.9091 49.3044 12.0584 51.3502 14.1043C53.3961 16.1501 54.5454 18.9249 54.5454 21.8182V54.5455C54.5454 57.4387 53.3961 60.2135 51.3502 62.2593C49.3044 64.3052 46.5296 65.4545 43.6364 65.4545C40.7431 65.4545 37.9683 64.3052 35.9225 62.2593C33.8766 60.2135 32.7273 57.4387 32.7273 54.5455V21.8182ZM87.2727 54.5455C87.2727 53.0988 86.698 51.7114 85.6751 50.6885C84.6522 49.6656 83.2648 49.0909 81.8182 49.0909C80.3715 49.0909 78.9841 49.6656 77.9612 50.6885C76.9383 51.7114 76.3636 53.0988 76.3636 54.5455C76.3636 63.2253 72.9156 71.5496 66.778 77.6871C60.6405 83.8247 52.3162 87.2727 43.6364 87.2727C34.9565 87.2727 26.6322 83.8247 20.4947 77.6871C14.3571 71.5496 10.9091 63.2253 10.9091 54.5455C10.9091 53.0988 10.3344 51.7114 9.31149 50.6885C8.28856 49.6656 6.90118 49.0909 5.45454 49.0909C4.00791 49.0909 2.62053 49.6656 1.5976 50.6885C0.574675 51.7114 0 53.0988 0 54.5455C0.00963159 65.1671 3.89303 75.4205 10.9222 83.3835C17.9513 91.3465 27.6435 96.4723 38.1818 97.8V109.091H27.2727C25.8261 109.091 24.4387 109.666 23.4158 110.689C22.3929 111.711 21.8182 113.099 21.8182 114.545C21.8182 115.992 22.3929 117.379 23.4158 118.402C24.4387 119.425 25.8261 120 27.2727 120H60C61.4466 120 62.834 119.425 63.8569 118.402C64.8799 117.379 65.4545 115.992 65.4545 114.545C65.4545 113.099 64.8799 111.711 63.8569 110.689C62.834 109.666 61.4466 109.091 60 109.091H49.0909V97.8C59.6292 96.4723 69.3214 91.3465 76.3505 83.3835C83.3797 75.4205 87.2631 65.1671 87.2727 54.5455Z" fill="#333333"/>
</svg>
