<svg width="48" height="48" viewBox="0 0 48 48" fill="none" xmlns="http://www.w3.org/2000/svg">
<path d="M24.3567 17.4092C24.2214 17.3507 24.0729 17.3291 23.9265 17.3466C23.7801 17.3642 23.641 17.4203 23.5234 17.5092L19.54 20.6592H16.4984C16.2774 20.6592 16.0654 20.747 15.9091 20.9033C15.7528 21.0596 15.665 21.2715 15.665 21.4925V26.4925C15.665 26.7136 15.7528 26.9255 15.9091 27.0818C16.0654 27.2381 16.2774 27.3259 16.4984 27.3259H19.54L23.4817 30.4759C23.6283 30.5935 23.8104 30.6581 23.9984 30.6592C24.1228 30.6613 24.2459 30.6326 24.3567 30.5759C24.4985 30.5083 24.6184 30.4021 24.7024 30.2694C24.7864 30.1367 24.8313 29.9829 24.8317 29.8259V18.1592C24.8313 18.0021 24.7864 17.8484 24.7024 17.7157C24.6184 17.583 24.4985 17.4767 24.3567 17.4092ZM23.165 28.0925L20.3484 25.8425C20.2018 25.7249 20.0197 25.6603 19.8317 25.6592H17.3317V22.3259H19.8317C20.0197 22.3248 20.2018 22.2602 20.3484 22.1425L23.165 19.8925V28.0925ZM30.3817 19.2759C30.2248 19.119 30.012 19.0308 29.79 19.0308C29.5681 19.0308 29.3553 19.119 29.1984 19.2759C29.0415 19.4328 28.9533 19.6456 28.9533 19.8675C28.9533 20.0895 29.0415 20.3023 29.1984 20.4592C29.6891 20.9492 30.0725 21.5358 30.3243 22.1819C30.5761 22.828 30.6908 23.5194 30.661 24.2122C30.6312 24.905 30.4576 25.584 30.1513 26.2061C29.845 26.8282 29.4127 27.3798 28.8817 27.8259C28.7528 27.9361 28.6605 28.0831 28.6174 28.2472C28.5742 28.4113 28.5821 28.5846 28.6401 28.744C28.6981 28.9035 28.8033 29.0414 28.9418 29.1394C29.0803 29.2375 29.2454 29.2909 29.415 29.2925C29.6097 29.2929 29.7984 29.2251 29.9484 29.1009C30.6575 28.507 31.2353 27.772 31.6449 26.9427C32.0546 26.1133 32.2872 25.2079 32.328 24.2838C32.3687 23.3597 32.2167 22.4372 31.8817 21.5751C31.5466 20.7129 31.0358 19.9299 30.3817 19.2759ZM28.0234 21.6342C27.9457 21.5565 27.8534 21.4949 27.7519 21.4528C27.6504 21.4108 27.5416 21.3891 27.4317 21.3891C27.3218 21.3891 27.213 21.4108 27.1115 21.4528C27.01 21.4949 26.9177 21.5565 26.84 21.6342C26.7623 21.7119 26.7007 21.8041 26.6587 21.9057C26.6166 22.0072 26.595 22.116 26.595 22.2259C26.595 22.3358 26.6166 22.4446 26.6587 22.5461C26.7007 22.6476 26.7623 22.7398 26.84 22.8175C27.153 23.1287 27.3298 23.5512 27.3317 23.9925C27.3319 24.2353 27.2791 24.4752 27.1769 24.6955C27.0747 24.9157 26.9256 25.1109 26.74 25.2675C26.6557 25.3375 26.5859 25.4234 26.5348 25.5204C26.4837 25.6173 26.4522 25.7234 26.4421 25.8326C26.432 25.9417 26.4436 26.0518 26.4761 26.1564C26.5087 26.2611 26.5615 26.3583 26.6317 26.4425C26.7023 26.5263 26.7886 26.5954 26.8859 26.6457C26.9831 26.6961 27.0893 26.7268 27.1985 26.7361C27.3076 26.7454 27.4175 26.7331 27.5219 26.6999C27.6262 26.6667 27.723 26.6132 27.8067 26.5425C28.1793 26.2301 28.479 25.84 28.6849 25.3995C28.8908 24.959 28.9977 24.4788 28.9984 23.9925C28.9937 23.1093 28.6437 22.2629 28.0234 21.6342Z" fill="#333333"/>
</svg>
