<svg width="48" height="48" viewBox="0 0 48 48" fill="none" xmlns="http://www.w3.org/2000/svg">
<path d="M30 34C29.1667 34 28.4583 33.7083 27.875 33.125C27.2917 32.5417 27 31.8333 27 31C27 30.8833 27.0083 30.7623 27.025 30.637C27.0417 30.5123 27.0667 30.4 27.1 30.3L20.05 26.2C19.7667 26.45 19.45 26.6457 19.1 26.787C18.75 26.929 18.3833 27 18 27C17.1667 27 16.4583 26.7083 15.875 26.125C15.2917 25.5417 15 24.8333 15 24C15 23.1667 15.2917 22.4583 15.875 21.875C16.4583 21.2917 17.1667 21 18 21C18.3833 21 18.75 21.0707 19.1 21.212C19.45 21.354 19.7667 21.55 20.05 21.8L27.1 17.7C27.0667 17.6 27.0417 17.4877 27.025 17.363C27.0083 17.2377 27 17.1167 27 17C27 16.1667 27.2917 15.4583 27.875 14.875C28.4583 14.2917 29.1667 14 30 14C30.8333 14 31.5417 14.2917 32.125 14.875C32.7083 15.4583 33 16.1667 33 17C33 17.8333 32.7083 18.5417 32.125 19.125C31.5417 19.7083 30.8333 20 30 20C29.6167 20 29.25 19.929 28.9 19.787C28.55 19.6457 28.2333 19.45 27.95 19.2L20.9 23.3C20.9333 23.4 20.9583 23.5123 20.975 23.637C20.9917 23.7623 21 23.8833 21 24C21 24.1167 20.9917 24.2373 20.975 24.362C20.9583 24.4873 20.9333 24.6 20.9 24.7L27.95 28.8C28.2333 28.55 28.55 28.354 28.9 28.212C29.25 28.0707 29.6167 28 30 28C30.8333 28 31.5417 28.2917 32.125 28.875C32.7083 29.4583 33 30.1667 33 31C33 31.8333 32.7083 32.5417 32.125 33.125C31.5417 33.7083 30.8333 34 30 34ZM30 18C30.2833 18 30.5207 17.9043 30.712 17.713C30.904 17.521 31 17.2833 31 17C31 16.7167 30.904 16.479 30.712 16.287C30.5207 16.0957 30.2833 16 30 16C29.7167 16 29.4793 16.0957 29.288 16.287C29.096 16.479 29 16.7167 29 17C29 17.2833 29.096 17.521 29.288 17.713C29.4793 17.9043 29.7167 18 30 18ZM18 25C18.2833 25 18.521 24.904 18.713 24.712C18.9043 24.5207 19 24.2833 19 24C19 23.7167 18.9043 23.479 18.713 23.287C18.521 23.0957 18.2833 23 18 23C17.7167 23 17.479 23.0957 17.287 23.287C17.0957 23.479 17 23.7167 17 24C17 24.2833 17.0957 24.5207 17.287 24.712C17.479 24.904 17.7167 25 18 25ZM30 32C30.2833 32 30.5207 31.904 30.712 31.712C30.904 31.5207 31 31.2833 31 31C31 30.7167 30.904 30.4793 30.712 30.288C30.5207 30.096 30.2833 30 30 30C29.7167 30 29.4793 30.096 29.288 30.288C29.096 30.4793 29 30.7167 29 31C29 31.2833 29.096 31.5207 29.288 31.712C29.4793 31.904 29.7167 32 30 32Z" fill="#333333"/>
</svg>
