<svg width="48" height="48" viewBox="0 0 48 48" fill="none" xmlns="http://www.w3.org/2000/svg">
<path fill-rule="evenodd" clip-rule="evenodd" d="M29.8044 14.9361C30.2005 15.3032 30.4595 16.0693 30.5105 16.5314C31.1006 16.8974 31.7987 17.6355 31.8597 19.0257C32.9129 19.7569 33.713 21.1091 32.7139 23.0864C33.2939 23.6264 33.941 25.2747 33.1089 26.6029C32.1398 28.1551 30.0335 28.2631 27.9341 27.9861C28.4942 29.5513 28.7043 30.9955 27.8181 32.4748C26.937 33.787 25.7208 34 25.3047 34C24.1666 34 23.3865 33.0209 23.0704 31.7167C22.9554 31.3526 22.8244 30.4925 22.7734 30.2664C22.5083 28.8262 21.6172 27.674 20.103 26.8129C19.4293 26.426 18.7178 26.1089 17.9796 25.8668H15.6393C15.1182 25.8668 14.4951 25.3397 14.4951 24.7016V17.0645C14.5691 16.3423 14.9702 15.9823 15.6973 15.9823H18.8078C20.172 15.6722 21.5322 15.3402 22.8874 14.9871C24.1966 14.6341 24.4836 14.5171 25.3998 14.265C27.4531 13.733 28.8783 14.026 29.8044 14.9361ZM27.4221 15.3602C26.6029 15.3602 25.5658 15.6122 25.1057 15.7593C24.9437 15.8103 24.6596 15.8943 24.3606 15.9803L24.0606 16.0673L23.7725 16.1493L23.2124 16.3073C23.2124 16.3073 21.8022 16.6854 19.0388 17.3275C18.9358 17.3395 18.8808 17.3475 18.8728 17.3495V24.7306C20.384 25.3127 21.5612 26.0188 22.4033 26.8489C23.6675 28.0931 24.0185 29.2173 24.2256 30.6565C24.3436 31.3796 24.5346 31.9627 24.8227 32.3618C24.9054 32.4813 25.0258 32.5697 25.1647 32.6128C25.3117 32.6598 25.5148 32.6628 25.9478 32.4288C26.3809 32.1927 26.938 31.5756 27.043 30.6565C27.113 29.7634 26.873 28.9892 26.5509 28.1751C26.4398 27.8977 26.3207 27.6236 26.1939 27.353C25.9758 26.9399 26.3039 26.2538 26.98 26.4029C27.8861 26.6579 30.1345 27.0029 31.4027 26.4029C32.1398 25.9758 32.3228 25.2867 31.9497 24.3365C31.8264 24.1187 31.6575 23.9301 31.4547 23.7835C31.2846 23.6814 30.9526 23.2394 31.3517 22.7383C31.7477 22.1032 32.3268 20.81 30.8616 20.0039C30.7593 19.9477 30.6739 19.8652 30.6141 19.765C30.5544 19.6648 30.5224 19.5505 30.5215 19.4338C30.5015 19.1598 30.5455 18.1436 29.7914 17.6895C29.6114 17.5925 29.3944 17.5125 29.2713 17.2795C29.1933 17.1255 29.1683 16.7514 29.1683 16.7514C29.0653 16.1193 28.9233 15.5292 27.4221 15.3602ZM17.5146 17.3455H15.8563V24.5036H17.5146V17.3455Z" fill="#333333"/>
</svg>
