<svg width="48" height="48" viewBox="0 0 48 48" fill="none" xmlns="http://www.w3.org/2000/svg">
<path d="M15.8598 23.495V30.652H18.8898L19.0428 30.67C21.8558 31.326 23.7198 31.799 24.6488 32.092C25.8828 32.481 26.3428 32.576 27.1798 32.632C27.8058 32.675 28.5168 32.434 28.8408 32.104C29.0198 31.922 29.1538 31.548 29.2068 30.968C29.2178 30.8464 29.2613 30.73 29.3327 30.6309C29.4041 30.5319 29.5009 30.4539 29.6128 30.405C29.8618 30.297 30.0688 30.121 30.2418 29.865C30.4018 29.631 30.5058 29.195 30.5248 28.564C30.5282 28.448 30.5611 28.3348 30.6204 28.2351C30.6797 28.1353 30.7635 28.0524 30.8638 27.994C31.4458 27.657 31.7338 27.277 31.7938 26.831C31.8598 26.338 31.6998 25.783 31.2808 25.151C31.1825 25.0028 31.1459 24.8221 31.1788 24.6473C31.2116 24.4725 31.3114 24.3174 31.4568 24.215C31.8578 23.933 32.0778 23.541 32.1328 22.985C32.2208 22.099 31.6558 21.444 30.3768 21.313C29.2377 21.2004 28.0876 21.2963 26.9828 21.596C26.8575 21.6288 26.7254 21.6251 26.6022 21.5853C26.4789 21.5455 26.3695 21.4714 26.287 21.3716C26.2044 21.2718 26.1521 21.1505 26.1361 21.022C26.1201 20.8934 26.1412 20.763 26.1968 20.646C26.6968 19.588 26.9748 18.715 27.0398 18.039C27.1248 17.142 26.9178 16.492 26.4338 15.956C26.0668 15.55 25.4798 15.318 25.2598 15.366C24.9698 15.428 24.7808 15.596 24.5348 16.184C24.3898 16.532 24.3198 16.828 24.1998 17.519C24.0848 18.175 24.0218 18.471 23.8908 18.859C23.4958 20.035 22.5268 21.254 21.2258 22.095C20.314 22.6837 19.3258 23.1447 18.2888 23.465C18.224 23.485 18.1566 23.4951 18.0888 23.495H15.8598ZM15.8178 32.015C15.4948 32.024 15.2048 31.952 14.9618 31.782C14.6518 31.565 14.5058 31.223 14.5028 30.829L14.5058 23.506C14.4718 23.116 14.5868 22.758 14.8588 22.492C15.1138 22.242 15.4468 22.124 15.7988 22.132H17.9838C18.8677 21.8504 19.7103 21.4529 20.4898 20.95C21.5378 20.272 22.3098 19.3 22.6048 18.424C22.7058 18.122 22.7598 17.872 22.8618 17.284C22.9998 16.495 23.0858 16.128 23.2838 15.656C23.6938 14.674 24.2318 14.194 24.9738 14.033C25.7038 13.875 26.7668 14.296 27.4388 15.04C28.1838 15.864 28.5128 16.895 28.3908 18.169C28.3388 18.717 28.1868 19.33 27.9368 20.013C28.7906 19.8886 29.6565 19.8698 30.5148 19.957C32.5218 20.162 33.6488 21.469 33.4848 23.121C33.4128 23.833 33.1548 24.438 32.7158 24.913C33.0848 25.624 33.2318 26.327 33.1398 27.013C33.0338 27.803 32.5938 28.461 31.8618 28.972C31.8048 29.665 31.6458 30.218 31.3638 30.632C31.1416 30.9665 30.8517 31.2506 30.5128 31.466C30.4048 32.15 30.1778 32.685 29.8068 33.061C29.1918 33.687 28.0928 34.06 27.0888 33.992C26.1358 33.928 25.5718 33.812 24.2418 33.392C23.3648 33.115 21.5488 32.655 18.8118 32.015H15.8178ZM17.5188 23.184C17.5185 23.0946 17.5359 23.0059 17.57 22.9232C17.6041 22.8405 17.6541 22.7653 17.7173 22.7019C17.7804 22.6385 17.8555 22.5883 17.9381 22.554C18.0208 22.5197 18.1093 22.502 18.1988 22.502C18.2881 22.5023 18.3765 22.5201 18.4589 22.5546C18.5413 22.589 18.6161 22.6393 18.6791 22.7026C18.742 22.7659 18.7919 22.8411 18.8258 22.9237C18.8597 23.0063 18.8771 23.0947 18.8768 23.184V30.862C18.8769 30.9513 18.8595 31.0398 18.8254 31.1223C18.7914 31.2049 18.7414 31.2799 18.6784 31.3432C18.6153 31.4064 18.5404 31.4566 18.458 31.4909C18.3755 31.5252 18.2871 31.5429 18.1978 31.543C18.1085 31.5429 18.0201 31.5252 17.9377 31.4909C17.8552 31.4566 17.7803 31.4064 17.7173 31.3432C17.6542 31.2799 17.6042 31.2049 17.5702 31.1223C17.5361 31.0398 17.5187 30.9513 17.5188 30.862V23.184Z" fill="#333333"/>
</svg>
